<mxfile host="app.diagrams.net" modified="2023-03-05T21:12:52.441Z" agent="5.0 (Windows NT 10.0; Win64; x64) AppleWebKit/537.36 (KHTML, like Gecko) Chrome/110.0.0.0 Safari/537.36 Edg/110.0.1587.63" etag="EY1syiG1bdolGBuIgTYa" version="21.0.2" type="github" pages="2">
  <diagram id="XNcsbRL4H3HsdZ_33JW5" name="ERD">
    <mxGraphModel dx="1900" dy="573" grid="1" gridSize="10" guides="1" tooltips="1" connect="1" arrows="1" fold="1" page="1" pageScale="1" pageWidth="850" pageHeight="1100" math="0" shadow="0">
      <root>
        <mxCell id="0" />
        <mxCell id="1" parent="0" />
        <mxCell id="D793tB1tDX6zN6qXxzev-1" value="Student" style="rounded=0;whiteSpace=wrap;html=1;" vertex="1" parent="1">
          <mxGeometry x="100" y="200" width="120" height="60" as="geometry" />
        </mxCell>
        <mxCell id="D793tB1tDX6zN6qXxzev-2" value="Exam&lt;br&gt;created empty, filled using SP ExamGeneration" style="rounded=0;whiteSpace=wrap;html=1;" vertex="1" parent="1">
          <mxGeometry x="800" y="580" width="120" height="60" as="geometry" />
        </mxCell>
        <mxCell id="D793tB1tDX6zN6qXxzev-3" value="Course" style="rounded=0;whiteSpace=wrap;html=1;" vertex="1" parent="1">
          <mxGeometry x="100" y="420" width="120" height="60" as="geometry" />
        </mxCell>
        <mxCell id="D793tB1tDX6zN6qXxzev-6" value="Crs_Id" style="ellipse;whiteSpace=wrap;html=1;" vertex="1" parent="1">
          <mxGeometry x="860" y="670" width="85" height="50" as="geometry" />
        </mxCell>
        <mxCell id="D793tB1tDX6zN6qXxzev-7" value="Exam_Id" style="ellipse;whiteSpace=wrap;html=1;" vertex="1" parent="1">
          <mxGeometry x="950" y="630" width="85" height="50" as="geometry" />
        </mxCell>
        <mxCell id="D793tB1tDX6zN6qXxzev-8" value="" style="endArrow=none;html=1;rounded=0;entryX=0;entryY=0;entryDx=0;entryDy=0;" edge="1" parent="1" target="D793tB1tDX6zN6qXxzev-7">
          <mxGeometry width="50" height="50" relative="1" as="geometry">
            <mxPoint x="920" y="620" as="sourcePoint" />
            <mxPoint x="800" y="550" as="targetPoint" />
          </mxGeometry>
        </mxCell>
        <mxCell id="D793tB1tDX6zN6qXxzev-9" value="" style="endArrow=none;html=1;rounded=0;entryX=0.75;entryY=1;entryDx=0;entryDy=0;exitX=0.5;exitY=0;exitDx=0;exitDy=0;" edge="1" parent="1" source="D793tB1tDX6zN6qXxzev-6" target="D793tB1tDX6zN6qXxzev-2">
          <mxGeometry width="50" height="50" relative="1" as="geometry">
            <mxPoint x="750" y="600" as="sourcePoint" />
            <mxPoint x="800" y="550" as="targetPoint" />
          </mxGeometry>
        </mxCell>
        <mxCell id="D793tB1tDX6zN6qXxzev-11" value="Stud_Id" style="ellipse;whiteSpace=wrap;html=1;" vertex="1" parent="1">
          <mxGeometry x="960" y="560" width="85" height="50" as="geometry" />
        </mxCell>
        <mxCell id="D793tB1tDX6zN6qXxzev-12" value="" style="endArrow=none;html=1;rounded=0;entryX=0;entryY=0.5;entryDx=0;entryDy=0;" edge="1" parent="1" target="D793tB1tDX6zN6qXxzev-11">
          <mxGeometry width="50" height="50" relative="1" as="geometry">
            <mxPoint x="920" y="590" as="sourcePoint" />
            <mxPoint x="800" y="550" as="targetPoint" />
          </mxGeometry>
        </mxCell>
        <mxCell id="D793tB1tDX6zN6qXxzev-16" value="&lt;u&gt;Stud_Id&lt;/u&gt;" style="ellipse;whiteSpace=wrap;html=1;" vertex="1" parent="1">
          <mxGeometry x="100" y="120" width="85" height="50" as="geometry" />
        </mxCell>
        <mxCell id="D793tB1tDX6zN6qXxzev-17" value="Stud_Lname" style="ellipse;whiteSpace=wrap;html=1;" vertex="1" parent="1">
          <mxGeometry x="-5" y="230" width="85" height="50" as="geometry" />
        </mxCell>
        <mxCell id="D793tB1tDX6zN6qXxzev-18" value="Stud_Fname" style="ellipse;whiteSpace=wrap;html=1;" vertex="1" parent="1">
          <mxGeometry x="-5" y="150" width="85" height="50" as="geometry" />
        </mxCell>
        <mxCell id="D793tB1tDX6zN6qXxzev-20" value="Department" style="rounded=0;whiteSpace=wrap;html=1;" vertex="1" parent="1">
          <mxGeometry x="410" y="110" width="120" height="60" as="geometry" />
        </mxCell>
        <mxCell id="D793tB1tDX6zN6qXxzev-22" value="has" style="rhombus;whiteSpace=wrap;html=1;" vertex="1" parent="1">
          <mxGeometry x="130" y="335" width="70" height="40" as="geometry" />
        </mxCell>
        <mxCell id="D793tB1tDX6zN6qXxzev-23" value="grade" style="ellipse;whiteSpace=wrap;html=1;" vertex="1" parent="1">
          <mxGeometry x="50" y="330" width="60" height="40" as="geometry" />
        </mxCell>
        <mxCell id="D793tB1tDX6zN6qXxzev-24" value="" style="endArrow=none;html=1;rounded=0;entryX=1;entryY=0.5;entryDx=0;entryDy=0;exitX=0;exitY=0.5;exitDx=0;exitDy=0;" edge="1" parent="1" source="D793tB1tDX6zN6qXxzev-22" target="D793tB1tDX6zN6qXxzev-23">
          <mxGeometry width="50" height="50" relative="1" as="geometry">
            <mxPoint x="490" y="330" as="sourcePoint" />
            <mxPoint x="540" y="280" as="targetPoint" />
          </mxGeometry>
        </mxCell>
        <mxCell id="D793tB1tDX6zN6qXxzev-25" value="" style="endArrow=none;html=1;rounded=0;entryX=0.5;entryY=1;entryDx=0;entryDy=0;exitX=0.5;exitY=0;exitDx=0;exitDy=0;" edge="1" parent="1" source="D793tB1tDX6zN6qXxzev-22" target="D793tB1tDX6zN6qXxzev-1">
          <mxGeometry width="50" height="50" relative="1" as="geometry">
            <mxPoint x="490" y="330" as="sourcePoint" />
            <mxPoint x="540" y="280" as="targetPoint" />
          </mxGeometry>
        </mxCell>
        <mxCell id="D793tB1tDX6zN6qXxzev-26" value="" style="endArrow=none;html=1;rounded=0;exitX=0.5;exitY=1;exitDx=0;exitDy=0;entryX=0.5;entryY=0;entryDx=0;entryDy=0;" edge="1" parent="1" source="D793tB1tDX6zN6qXxzev-22" target="D793tB1tDX6zN6qXxzev-3">
          <mxGeometry width="50" height="50" relative="1" as="geometry">
            <mxPoint x="490" y="330" as="sourcePoint" />
            <mxPoint x="540" y="280" as="targetPoint" />
          </mxGeometry>
        </mxCell>
        <mxCell id="D793tB1tDX6zN6qXxzev-27" value="" style="endArrow=none;html=1;rounded=0;entryX=1;entryY=0.5;entryDx=0;entryDy=0;exitX=0;exitY=0.5;exitDx=0;exitDy=0;" edge="1" parent="1" source="D793tB1tDX6zN6qXxzev-1" target="D793tB1tDX6zN6qXxzev-17">
          <mxGeometry width="50" height="50" relative="1" as="geometry">
            <mxPoint x="490" y="330" as="sourcePoint" />
            <mxPoint x="540" y="280" as="targetPoint" />
          </mxGeometry>
        </mxCell>
        <mxCell id="D793tB1tDX6zN6qXxzev-28" value="" style="endArrow=none;html=1;rounded=0;entryX=1;entryY=1;entryDx=0;entryDy=0;exitX=0;exitY=0;exitDx=0;exitDy=0;" edge="1" parent="1" source="D793tB1tDX6zN6qXxzev-1" target="D793tB1tDX6zN6qXxzev-18">
          <mxGeometry width="50" height="50" relative="1" as="geometry">
            <mxPoint x="500" y="340" as="sourcePoint" />
            <mxPoint x="550" y="290" as="targetPoint" />
          </mxGeometry>
        </mxCell>
        <mxCell id="D793tB1tDX6zN6qXxzev-29" value="" style="endArrow=none;html=1;rounded=0;entryX=0.5;entryY=1;entryDx=0;entryDy=0;exitX=0.5;exitY=0;exitDx=0;exitDy=0;" edge="1" parent="1" source="D793tB1tDX6zN6qXxzev-1" target="D793tB1tDX6zN6qXxzev-16">
          <mxGeometry width="50" height="50" relative="1" as="geometry">
            <mxPoint x="510" y="350" as="sourcePoint" />
            <mxPoint x="560" y="300" as="targetPoint" />
          </mxGeometry>
        </mxCell>
        <mxCell id="D793tB1tDX6zN6qXxzev-30" value="M" style="text;strokeColor=none;align=center;fillColor=none;html=1;verticalAlign=middle;whiteSpace=wrap;rounded=0;" vertex="1" parent="1">
          <mxGeometry x="145" y="400" width="20" height="20" as="geometry" />
        </mxCell>
        <mxCell id="D793tB1tDX6zN6qXxzev-31" value="M" style="text;strokeColor=none;align=center;fillColor=none;html=1;verticalAlign=middle;whiteSpace=wrap;rounded=0;" vertex="1" parent="1">
          <mxGeometry x="145" y="260" width="20" height="20" as="geometry" />
        </mxCell>
        <mxCell id="D793tB1tDX6zN6qXxzev-32" value="include" style="rhombus;whiteSpace=wrap;html=1;" vertex="1" parent="1">
          <mxGeometry x="280" y="160" width="70" height="40" as="geometry" />
        </mxCell>
        <mxCell id="D793tB1tDX6zN6qXxzev-33" value="" style="endArrow=none;html=1;rounded=0;entryX=0;entryY=0.5;entryDx=0;entryDy=0;exitX=1;exitY=0.5;exitDx=0;exitDy=0;" edge="1" parent="1" source="D793tB1tDX6zN6qXxzev-1" target="D793tB1tDX6zN6qXxzev-32">
          <mxGeometry width="50" height="50" relative="1" as="geometry">
            <mxPoint x="210" y="255" as="sourcePoint" />
            <mxPoint x="260" y="205" as="targetPoint" />
          </mxGeometry>
        </mxCell>
        <mxCell id="D793tB1tDX6zN6qXxzev-34" value="" style="endArrow=none;html=1;rounded=0;entryX=0;entryY=0.5;entryDx=0;entryDy=0;exitX=1;exitY=0.5;exitDx=0;exitDy=0;" edge="1" parent="1" source="D793tB1tDX6zN6qXxzev-32" target="D793tB1tDX6zN6qXxzev-20">
          <mxGeometry width="50" height="50" relative="1" as="geometry">
            <mxPoint x="340" y="255" as="sourcePoint" />
            <mxPoint x="390" y="205" as="targetPoint" />
          </mxGeometry>
        </mxCell>
        <mxCell id="D793tB1tDX6zN6qXxzev-35" value="1" style="text;strokeColor=none;align=center;fillColor=none;html=1;verticalAlign=middle;whiteSpace=wrap;rounded=0;" vertex="1" parent="1">
          <mxGeometry x="390" y="120" width="20" height="20" as="geometry" />
        </mxCell>
        <mxCell id="D793tB1tDX6zN6qXxzev-36" value="M" style="text;strokeColor=none;align=center;fillColor=none;html=1;verticalAlign=middle;whiteSpace=wrap;rounded=0;" vertex="1" parent="1">
          <mxGeometry x="220" y="200" width="20" height="20" as="geometry" />
        </mxCell>
        <mxCell id="D793tB1tDX6zN6qXxzev-38" value="Dept_Name" style="ellipse;whiteSpace=wrap;html=1;" vertex="1" parent="1">
          <mxGeometry x="540" y="60" width="85" height="50" as="geometry" />
        </mxCell>
        <mxCell id="D793tB1tDX6zN6qXxzev-39" value="&lt;u&gt;Dept_Id&lt;/u&gt;" style="ellipse;whiteSpace=wrap;html=1;" vertex="1" parent="1">
          <mxGeometry x="427.5" y="40" width="85" height="50" as="geometry" />
        </mxCell>
        <mxCell id="D793tB1tDX6zN6qXxzev-40" value="" style="endArrow=none;html=1;rounded=0;entryX=0.5;entryY=1;entryDx=0;entryDy=0;" edge="1" parent="1" target="D793tB1tDX6zN6qXxzev-39">
          <mxGeometry width="50" height="50" relative="1" as="geometry">
            <mxPoint x="470" y="110" as="sourcePoint" />
            <mxPoint x="540" y="290" as="targetPoint" />
          </mxGeometry>
        </mxCell>
        <mxCell id="D793tB1tDX6zN6qXxzev-41" value="" style="endArrow=none;html=1;rounded=0;entryX=0;entryY=1;entryDx=0;entryDy=0;exitX=1;exitY=0.5;exitDx=0;exitDy=0;" edge="1" parent="1" source="D793tB1tDX6zN6qXxzev-20" target="D793tB1tDX6zN6qXxzev-38">
          <mxGeometry width="50" height="50" relative="1" as="geometry">
            <mxPoint x="510" y="210" as="sourcePoint" />
            <mxPoint x="560" y="160" as="targetPoint" />
          </mxGeometry>
        </mxCell>
        <mxCell id="D793tB1tDX6zN6qXxzev-42" value="&lt;u&gt;Crs_Id&lt;/u&gt;" style="ellipse;whiteSpace=wrap;html=1;" vertex="1" parent="1">
          <mxGeometry x="-5" y="395" width="85" height="50" as="geometry" />
        </mxCell>
        <mxCell id="D793tB1tDX6zN6qXxzev-43" value="Crs_Name" style="ellipse;whiteSpace=wrap;html=1;" vertex="1" parent="1">
          <mxGeometry x="-5" y="490" width="85" height="50" as="geometry" />
        </mxCell>
        <mxCell id="D793tB1tDX6zN6qXxzev-44" value="" style="endArrow=none;html=1;rounded=0;entryX=0;entryY=0.5;entryDx=0;entryDy=0;exitX=0.5;exitY=0;exitDx=0;exitDy=0;" edge="1" parent="1" source="D793tB1tDX6zN6qXxzev-43" target="D793tB1tDX6zN6qXxzev-3">
          <mxGeometry width="50" height="50" relative="1" as="geometry">
            <mxPoint x="490" y="340" as="sourcePoint" />
            <mxPoint x="540" y="290" as="targetPoint" />
          </mxGeometry>
        </mxCell>
        <mxCell id="D793tB1tDX6zN6qXxzev-45" value="" style="endArrow=none;html=1;rounded=0;entryX=0;entryY=0;entryDx=0;entryDy=0;exitX=1;exitY=0.5;exitDx=0;exitDy=0;" edge="1" parent="1" source="D793tB1tDX6zN6qXxzev-42" target="D793tB1tDX6zN6qXxzev-3">
          <mxGeometry width="50" height="50" relative="1" as="geometry">
            <mxPoint x="500" y="350" as="sourcePoint" />
            <mxPoint x="550" y="300" as="targetPoint" />
          </mxGeometry>
        </mxCell>
        <mxCell id="D793tB1tDX6zN6qXxzev-46" value="Instructor" style="rounded=0;whiteSpace=wrap;html=1;" vertex="1" parent="1">
          <mxGeometry x="512.5" y="340" width="120" height="60" as="geometry" />
        </mxCell>
        <mxCell id="D793tB1tDX6zN6qXxzev-47" value="Ins_Fname" style="ellipse;whiteSpace=wrap;html=1;" vertex="1" parent="1">
          <mxGeometry x="662.5" y="330" width="85" height="50" as="geometry" />
        </mxCell>
        <mxCell id="D793tB1tDX6zN6qXxzev-48" value="&lt;u&gt;Ins_Id&lt;/u&gt;" style="ellipse;whiteSpace=wrap;html=1;" vertex="1" parent="1">
          <mxGeometry x="587.5" y="280" width="85" height="50" as="geometry" />
        </mxCell>
        <mxCell id="D793tB1tDX6zN6qXxzev-50" value="Ins_Lname" style="ellipse;whiteSpace=wrap;html=1;" vertex="1" parent="1">
          <mxGeometry x="672.5" y="385" width="85" height="50" as="geometry" />
        </mxCell>
        <mxCell id="D793tB1tDX6zN6qXxzev-51" value="" style="endArrow=none;html=1;rounded=0;entryX=0;entryY=0.5;entryDx=0;entryDy=0;exitX=1;exitY=0.5;exitDx=0;exitDy=0;" edge="1" parent="1" source="D793tB1tDX6zN6qXxzev-46" target="D793tB1tDX6zN6qXxzev-47">
          <mxGeometry width="50" height="50" relative="1" as="geometry">
            <mxPoint x="452.5" y="480" as="sourcePoint" />
            <mxPoint x="502.5" y="430" as="targetPoint" />
          </mxGeometry>
        </mxCell>
        <mxCell id="D793tB1tDX6zN6qXxzev-52" value="" style="endArrow=none;html=1;rounded=0;entryX=0;entryY=1;entryDx=0;entryDy=0;exitX=0.5;exitY=0;exitDx=0;exitDy=0;" edge="1" parent="1" source="D793tB1tDX6zN6qXxzev-46" target="D793tB1tDX6zN6qXxzev-48">
          <mxGeometry width="50" height="50" relative="1" as="geometry">
            <mxPoint x="502.5" y="490" as="sourcePoint" />
            <mxPoint x="552.5" y="440" as="targetPoint" />
          </mxGeometry>
        </mxCell>
        <mxCell id="D793tB1tDX6zN6qXxzev-53" value="" style="endArrow=none;html=1;rounded=0;entryX=0;entryY=0.5;entryDx=0;entryDy=0;exitX=1;exitY=1;exitDx=0;exitDy=0;" edge="1" parent="1" source="D793tB1tDX6zN6qXxzev-46" target="D793tB1tDX6zN6qXxzev-50">
          <mxGeometry width="50" height="50" relative="1" as="geometry">
            <mxPoint x="432.5" y="430" as="sourcePoint" />
            <mxPoint x="482.5" y="380" as="targetPoint" />
          </mxGeometry>
        </mxCell>
        <mxCell id="D793tB1tDX6zN6qXxzev-55" value="Teach" style="rhombus;whiteSpace=wrap;html=1;" vertex="1" parent="1">
          <mxGeometry x="330" y="410" width="70" height="40" as="geometry" />
        </mxCell>
        <mxCell id="D793tB1tDX6zN6qXxzev-56" value="" style="endArrow=none;html=1;rounded=0;exitX=1;exitY=0.5;exitDx=0;exitDy=0;entryX=0;entryY=0.5;entryDx=0;entryDy=0;" edge="1" parent="1" source="D793tB1tDX6zN6qXxzev-3" target="D793tB1tDX6zN6qXxzev-55">
          <mxGeometry width="50" height="50" relative="1" as="geometry">
            <mxPoint x="490" y="340" as="sourcePoint" />
            <mxPoint x="540" y="290" as="targetPoint" />
          </mxGeometry>
        </mxCell>
        <mxCell id="D793tB1tDX6zN6qXxzev-57" value="" style="endArrow=none;html=1;rounded=0;exitX=1;exitY=0.5;exitDx=0;exitDy=0;entryX=0;entryY=1;entryDx=0;entryDy=0;" edge="1" parent="1" source="D793tB1tDX6zN6qXxzev-55" target="D793tB1tDX6zN6qXxzev-46">
          <mxGeometry width="50" height="50" relative="1" as="geometry">
            <mxPoint x="320" y="375" as="sourcePoint" />
            <mxPoint x="510" y="370" as="targetPoint" />
          </mxGeometry>
        </mxCell>
        <mxCell id="D793tB1tDX6zN6qXxzev-58" value="M" style="text;strokeColor=none;align=center;fillColor=none;html=1;verticalAlign=middle;whiteSpace=wrap;rounded=0;" vertex="1" parent="1">
          <mxGeometry x="492.5" y="385" width="20" height="20" as="geometry" />
        </mxCell>
        <mxCell id="D793tB1tDX6zN6qXxzev-59" value="M" style="text;strokeColor=none;align=center;fillColor=none;html=1;verticalAlign=middle;whiteSpace=wrap;rounded=0;" vertex="1" parent="1">
          <mxGeometry x="220" y="430" width="20" height="20" as="geometry" />
        </mxCell>
        <mxCell id="D793tB1tDX6zN6qXxzev-63" value="" style="group" vertex="1" connectable="0" parent="1">
          <mxGeometry x="105" y="620" width="110" height="60" as="geometry" />
        </mxCell>
        <mxCell id="D793tB1tDX6zN6qXxzev-61" value="" style="rounded=0;whiteSpace=wrap;html=1;" vertex="1" parent="D793tB1tDX6zN6qXxzev-63">
          <mxGeometry width="110" height="60" as="geometry" />
        </mxCell>
        <mxCell id="D793tB1tDX6zN6qXxzev-62" value="Topic" style="rounded=0;whiteSpace=wrap;html=1;" vertex="1" parent="D793tB1tDX6zN6qXxzev-63">
          <mxGeometry x="2.5" y="5" width="105" height="50" as="geometry" />
        </mxCell>
        <mxCell id="D793tB1tDX6zN6qXxzev-64" value="include" style="rhombus;whiteSpace=wrap;html=1;" vertex="1" parent="1">
          <mxGeometry x="125" y="540" width="70" height="40" as="geometry" />
        </mxCell>
        <mxCell id="D793tB1tDX6zN6qXxzev-65" value="" style="endArrow=none;html=1;rounded=0;entryX=0.5;entryY=1;entryDx=0;entryDy=0;exitX=0.5;exitY=0;exitDx=0;exitDy=0;" edge="1" parent="1" source="D793tB1tDX6zN6qXxzev-61" target="D793tB1tDX6zN6qXxzev-64">
          <mxGeometry width="50" height="50" relative="1" as="geometry">
            <mxPoint x="490" y="490" as="sourcePoint" />
            <mxPoint x="540" y="440" as="targetPoint" />
          </mxGeometry>
        </mxCell>
        <mxCell id="D793tB1tDX6zN6qXxzev-66" value="" style="endArrow=none;html=1;rounded=0;entryX=0.5;entryY=1;entryDx=0;entryDy=0;exitX=0.5;exitY=0;exitDx=0;exitDy=0;" edge="1" parent="1" source="D793tB1tDX6zN6qXxzev-64" target="D793tB1tDX6zN6qXxzev-3">
          <mxGeometry width="50" height="50" relative="1" as="geometry">
            <mxPoint x="330" y="520" as="sourcePoint" />
            <mxPoint x="380" y="470" as="targetPoint" />
          </mxGeometry>
        </mxCell>
        <mxCell id="D793tB1tDX6zN6qXxzev-67" value="Top_Name" style="ellipse;whiteSpace=wrap;html=1;" vertex="1" parent="1">
          <mxGeometry x="117.5" y="710" width="85" height="50" as="geometry" />
        </mxCell>
        <mxCell id="D793tB1tDX6zN6qXxzev-68" value="&lt;u&gt;Top_Id&lt;/u&gt;" style="ellipse;whiteSpace=wrap;html=1;" vertex="1" parent="1">
          <mxGeometry y="600" width="85" height="50" as="geometry" />
        </mxCell>
        <mxCell id="D793tB1tDX6zN6qXxzev-69" value="" style="endArrow=none;html=1;rounded=0;exitX=0.5;exitY=0;exitDx=0;exitDy=0;" edge="1" parent="1" source="D793tB1tDX6zN6qXxzev-67">
          <mxGeometry width="50" height="50" relative="1" as="geometry">
            <mxPoint x="250" y="650" as="sourcePoint" />
            <mxPoint x="160" y="680" as="targetPoint" />
          </mxGeometry>
        </mxCell>
        <mxCell id="D793tB1tDX6zN6qXxzev-70" value="" style="endArrow=none;html=1;rounded=0;exitX=1;exitY=0.5;exitDx=0;exitDy=0;entryX=0;entryY=0;entryDx=0;entryDy=0;" edge="1" parent="1" source="D793tB1tDX6zN6qXxzev-68" target="D793tB1tDX6zN6qXxzev-61">
          <mxGeometry width="50" height="50" relative="1" as="geometry">
            <mxPoint x="490" y="490" as="sourcePoint" />
            <mxPoint x="100" y="650" as="targetPoint" />
          </mxGeometry>
        </mxCell>
        <mxCell id="D793tB1tDX6zN6qXxzev-72" value="&lt;u&gt;Crs_Id&lt;/u&gt;" style="ellipse;whiteSpace=wrap;html=1;" vertex="1" parent="1">
          <mxGeometry y="660" width="85" height="50" as="geometry" />
        </mxCell>
        <mxCell id="D793tB1tDX6zN6qXxzev-73" value="" style="endArrow=none;html=1;rounded=0;entryX=0;entryY=0.5;entryDx=0;entryDy=0;exitX=1;exitY=0.5;exitDx=0;exitDy=0;" edge="1" parent="1" source="D793tB1tDX6zN6qXxzev-72" target="D793tB1tDX6zN6qXxzev-61">
          <mxGeometry width="50" height="50" relative="1" as="geometry">
            <mxPoint x="490" y="490" as="sourcePoint" />
            <mxPoint x="540" y="440" as="targetPoint" />
          </mxGeometry>
        </mxCell>
        <mxCell id="D793tB1tDX6zN6qXxzev-74" value="Question" style="rounded=0;whiteSpace=wrap;html=1;" vertex="1" parent="1">
          <mxGeometry x="400" y="660" width="120" height="60" as="geometry" />
        </mxCell>
        <mxCell id="D793tB1tDX6zN6qXxzev-75" value="&lt;u&gt;Ques_Id&lt;/u&gt;" style="ellipse;whiteSpace=wrap;html=1;" vertex="1" parent="1">
          <mxGeometry x="292.5" y="710" width="85" height="50" as="geometry" />
        </mxCell>
        <mxCell id="D793tB1tDX6zN6qXxzev-76" value="Ques_Body" style="ellipse;whiteSpace=wrap;html=1;" vertex="1" parent="1">
          <mxGeometry x="357.5" y="750" width="85" height="50" as="geometry" />
        </mxCell>
        <mxCell id="D793tB1tDX6zN6qXxzev-77" value="Ques_Grade" style="ellipse;whiteSpace=wrap;html=1;" vertex="1" parent="1">
          <mxGeometry x="540" y="740" width="85" height="50" as="geometry" />
        </mxCell>
        <mxCell id="D793tB1tDX6zN6qXxzev-78" value="Ques_Type" style="ellipse;whiteSpace=wrap;html=1;" vertex="1" parent="1">
          <mxGeometry x="462.5" y="770" width="85" height="50" as="geometry" />
        </mxCell>
        <mxCell id="D793tB1tDX6zN6qXxzev-79" value="Choice" style="rounded=0;whiteSpace=wrap;html=1;" vertex="1" parent="1">
          <mxGeometry x="377.5" y="940" width="120" height="60" as="geometry" />
        </mxCell>
        <mxCell id="D793tB1tDX6zN6qXxzev-80" value="&lt;u&gt;Ques_Id&lt;/u&gt;" style="ellipse;whiteSpace=wrap;html=1;" vertex="1" parent="1">
          <mxGeometry x="272.5" y="1010" width="85" height="50" as="geometry" />
        </mxCell>
        <mxCell id="D793tB1tDX6zN6qXxzev-81" value="Choice_Body" style="ellipse;whiteSpace=wrap;html=1;" vertex="1" parent="1">
          <mxGeometry x="480" y="1030" width="85" height="50" as="geometry" />
        </mxCell>
        <mxCell id="D793tB1tDX6zN6qXxzev-82" value="Ques_ModelAns" style="ellipse;whiteSpace=wrap;html=1;" vertex="1" parent="1">
          <mxGeometry x="560" y="680" width="92.5" height="55" as="geometry" />
        </mxCell>
        <mxCell id="D793tB1tDX6zN6qXxzev-83" value="Choice_Num" style="ellipse;whiteSpace=wrap;html=1;" vertex="1" parent="1">
          <mxGeometry x="377.5" y="1030" width="85" height="50" as="geometry" />
        </mxCell>
        <mxCell id="D793tB1tDX6zN6qXxzev-84" value="" style="endArrow=none;html=1;rounded=0;entryX=0.5;entryY=1;entryDx=0;entryDy=0;exitX=0.5;exitY=0;exitDx=0;exitDy=0;" edge="1" parent="1" source="D793tB1tDX6zN6qXxzev-79" target="D793tB1tDX6zN6qXxzev-74">
          <mxGeometry width="50" height="50" relative="1" as="geometry">
            <mxPoint x="690" y="810" as="sourcePoint" />
            <mxPoint x="740" y="760" as="targetPoint" />
          </mxGeometry>
        </mxCell>
        <mxCell id="D793tB1tDX6zN6qXxzev-85" value="" style="endArrow=none;html=1;rounded=0;entryX=0;entryY=0.5;entryDx=0;entryDy=0;exitX=0.5;exitY=0;exitDx=0;exitDy=0;" edge="1" parent="1" source="D793tB1tDX6zN6qXxzev-75" target="D793tB1tDX6zN6qXxzev-74">
          <mxGeometry width="50" height="50" relative="1" as="geometry">
            <mxPoint x="690" y="660" as="sourcePoint" />
            <mxPoint x="740" y="610" as="targetPoint" />
          </mxGeometry>
        </mxCell>
        <mxCell id="D793tB1tDX6zN6qXxzev-86" value="" style="endArrow=none;html=1;rounded=0;entryX=0.75;entryY=1;entryDx=0;entryDy=0;exitX=0.319;exitY=0.028;exitDx=0;exitDy=0;exitPerimeter=0;" edge="1" parent="1" source="D793tB1tDX6zN6qXxzev-78" target="D793tB1tDX6zN6qXxzev-74">
          <mxGeometry width="50" height="50" relative="1" as="geometry">
            <mxPoint x="690" y="660" as="sourcePoint" />
            <mxPoint x="740" y="610" as="targetPoint" />
          </mxGeometry>
        </mxCell>
        <mxCell id="D793tB1tDX6zN6qXxzev-87" value="" style="endArrow=none;html=1;rounded=0;entryX=1;entryY=1;entryDx=0;entryDy=0;exitX=0.02;exitY=0.34;exitDx=0;exitDy=0;exitPerimeter=0;" edge="1" parent="1" source="D793tB1tDX6zN6qXxzev-77" target="D793tB1tDX6zN6qXxzev-74">
          <mxGeometry width="50" height="50" relative="1" as="geometry">
            <mxPoint x="690" y="660" as="sourcePoint" />
            <mxPoint x="740" y="610" as="targetPoint" />
          </mxGeometry>
        </mxCell>
        <mxCell id="D793tB1tDX6zN6qXxzev-88" value="" style="endArrow=none;html=1;rounded=0;entryX=1;entryY=0.5;entryDx=0;entryDy=0;exitX=0;exitY=0.5;exitDx=0;exitDy=0;" edge="1" parent="1" source="D793tB1tDX6zN6qXxzev-82" target="D793tB1tDX6zN6qXxzev-74">
          <mxGeometry width="50" height="50" relative="1" as="geometry">
            <mxPoint x="690" y="660" as="sourcePoint" />
            <mxPoint x="740" y="610" as="targetPoint" />
          </mxGeometry>
        </mxCell>
        <mxCell id="D793tB1tDX6zN6qXxzev-89" value="" style="endArrow=none;html=1;rounded=0;entryX=0.25;entryY=1;entryDx=0;entryDy=0;exitX=0.5;exitY=0;exitDx=0;exitDy=0;" edge="1" parent="1" source="D793tB1tDX6zN6qXxzev-76" target="D793tB1tDX6zN6qXxzev-74">
          <mxGeometry width="50" height="50" relative="1" as="geometry">
            <mxPoint x="690" y="660" as="sourcePoint" />
            <mxPoint x="740" y="610" as="targetPoint" />
          </mxGeometry>
        </mxCell>
      </root>
    </mxGraphModel>
  </diagram>
  <diagram id="R2lEEEUBdFMjLlhIrx00" name="Page-1">
    <mxGraphModel dx="1050" dy="573" grid="1" gridSize="10" guides="1" tooltips="1" connect="1" arrows="1" fold="1" page="1" pageScale="1" pageWidth="850" pageHeight="1100" math="0" shadow="0" extFonts="Permanent Marker^https://fonts.googleapis.com/css?family=Permanent+Marker">
      <root>
        <mxCell id="0" />
        <mxCell id="1" parent="0" />
        <mxCell id="C-vyLk0tnHw3VtMMgP7b-1" value="" style="edgeStyle=entityRelationEdgeStyle;endArrow=ERzeroToMany;startArrow=ERone;endFill=1;startFill=0;" parent="1" source="C-vyLk0tnHw3VtMMgP7b-24" target="C-vyLk0tnHw3VtMMgP7b-6" edge="1">
          <mxGeometry width="100" height="100" relative="1" as="geometry">
            <mxPoint x="340" y="720" as="sourcePoint" />
            <mxPoint x="440" y="620" as="targetPoint" />
          </mxGeometry>
        </mxCell>
        <mxCell id="C-vyLk0tnHw3VtMMgP7b-12" value="" style="edgeStyle=entityRelationEdgeStyle;endArrow=ERzeroToMany;startArrow=ERone;endFill=1;startFill=0;" parent="1" source="C-vyLk0tnHw3VtMMgP7b-3" target="C-vyLk0tnHw3VtMMgP7b-17" edge="1">
          <mxGeometry width="100" height="100" relative="1" as="geometry">
            <mxPoint x="400" y="180" as="sourcePoint" />
            <mxPoint x="460" y="205" as="targetPoint" />
          </mxGeometry>
        </mxCell>
        <mxCell id="C-vyLk0tnHw3VtMMgP7b-2" value="Orders" style="shape=table;startSize=30;container=1;collapsible=1;childLayout=tableLayout;fixedRows=1;rowLines=0;fontStyle=1;align=center;resizeLast=1;" parent="1" vertex="1">
          <mxGeometry x="450" y="120" width="250" height="130" as="geometry" />
        </mxCell>
        <mxCell id="C-vyLk0tnHw3VtMMgP7b-3" value="" style="shape=partialRectangle;collapsible=0;dropTarget=0;pointerEvents=0;fillColor=none;points=[[0,0.5],[1,0.5]];portConstraint=eastwest;top=0;left=0;right=0;bottom=1;" parent="C-vyLk0tnHw3VtMMgP7b-2" vertex="1">
          <mxGeometry y="30" width="250" height="30" as="geometry" />
        </mxCell>
        <mxCell id="C-vyLk0tnHw3VtMMgP7b-4" value="PK" style="shape=partialRectangle;overflow=hidden;connectable=0;fillColor=none;top=0;left=0;bottom=0;right=0;fontStyle=1;" parent="C-vyLk0tnHw3VtMMgP7b-3" vertex="1">
          <mxGeometry width="30" height="30" as="geometry" />
        </mxCell>
        <mxCell id="C-vyLk0tnHw3VtMMgP7b-5" value="order_id int NOT NULL " style="shape=partialRectangle;overflow=hidden;connectable=0;fillColor=none;top=0;left=0;bottom=0;right=0;align=left;spacingLeft=6;fontStyle=5;" parent="C-vyLk0tnHw3VtMMgP7b-3" vertex="1">
          <mxGeometry x="30" width="220" height="30" as="geometry" />
        </mxCell>
        <mxCell id="C-vyLk0tnHw3VtMMgP7b-6" value="" style="shape=partialRectangle;collapsible=0;dropTarget=0;pointerEvents=0;fillColor=none;points=[[0,0.5],[1,0.5]];portConstraint=eastwest;top=0;left=0;right=0;bottom=0;" parent="C-vyLk0tnHw3VtMMgP7b-2" vertex="1">
          <mxGeometry y="60" width="250" height="30" as="geometry" />
        </mxCell>
        <mxCell id="C-vyLk0tnHw3VtMMgP7b-7" value="FK1" style="shape=partialRectangle;overflow=hidden;connectable=0;fillColor=none;top=0;left=0;bottom=0;right=0;" parent="C-vyLk0tnHw3VtMMgP7b-6" vertex="1">
          <mxGeometry width="30" height="30" as="geometry" />
        </mxCell>
        <mxCell id="C-vyLk0tnHw3VtMMgP7b-8" value="customer_id int NOT NULL" style="shape=partialRectangle;overflow=hidden;connectable=0;fillColor=none;top=0;left=0;bottom=0;right=0;align=left;spacingLeft=6;" parent="C-vyLk0tnHw3VtMMgP7b-6" vertex="1">
          <mxGeometry x="30" width="220" height="30" as="geometry" />
        </mxCell>
        <mxCell id="C-vyLk0tnHw3VtMMgP7b-9" value="" style="shape=partialRectangle;collapsible=0;dropTarget=0;pointerEvents=0;fillColor=none;points=[[0,0.5],[1,0.5]];portConstraint=eastwest;top=0;left=0;right=0;bottom=0;" parent="C-vyLk0tnHw3VtMMgP7b-2" vertex="1">
          <mxGeometry y="90" width="250" height="30" as="geometry" />
        </mxCell>
        <mxCell id="C-vyLk0tnHw3VtMMgP7b-10" value="" style="shape=partialRectangle;overflow=hidden;connectable=0;fillColor=none;top=0;left=0;bottom=0;right=0;" parent="C-vyLk0tnHw3VtMMgP7b-9" vertex="1">
          <mxGeometry width="30" height="30" as="geometry" />
        </mxCell>
        <mxCell id="C-vyLk0tnHw3VtMMgP7b-11" value="order_date date NOT NULL" style="shape=partialRectangle;overflow=hidden;connectable=0;fillColor=none;top=0;left=0;bottom=0;right=0;align=left;spacingLeft=6;" parent="C-vyLk0tnHw3VtMMgP7b-9" vertex="1">
          <mxGeometry x="30" width="220" height="30" as="geometry" />
        </mxCell>
        <mxCell id="C-vyLk0tnHw3VtMMgP7b-13" value="Shipments" style="shape=table;startSize=30;container=1;collapsible=1;childLayout=tableLayout;fixedRows=1;rowLines=0;fontStyle=1;align=center;resizeLast=1;" parent="1" vertex="1">
          <mxGeometry x="450" y="280" width="250" height="130" as="geometry" />
        </mxCell>
        <mxCell id="C-vyLk0tnHw3VtMMgP7b-14" value="" style="shape=partialRectangle;collapsible=0;dropTarget=0;pointerEvents=0;fillColor=none;points=[[0,0.5],[1,0.5]];portConstraint=eastwest;top=0;left=0;right=0;bottom=1;" parent="C-vyLk0tnHw3VtMMgP7b-13" vertex="1">
          <mxGeometry y="30" width="250" height="30" as="geometry" />
        </mxCell>
        <mxCell id="C-vyLk0tnHw3VtMMgP7b-15" value="PK" style="shape=partialRectangle;overflow=hidden;connectable=0;fillColor=none;top=0;left=0;bottom=0;right=0;fontStyle=1;" parent="C-vyLk0tnHw3VtMMgP7b-14" vertex="1">
          <mxGeometry width="30" height="30" as="geometry" />
        </mxCell>
        <mxCell id="C-vyLk0tnHw3VtMMgP7b-16" value="shipment_id int NOT NULL " style="shape=partialRectangle;overflow=hidden;connectable=0;fillColor=none;top=0;left=0;bottom=0;right=0;align=left;spacingLeft=6;fontStyle=5;" parent="C-vyLk0tnHw3VtMMgP7b-14" vertex="1">
          <mxGeometry x="30" width="220" height="30" as="geometry" />
        </mxCell>
        <mxCell id="C-vyLk0tnHw3VtMMgP7b-17" value="" style="shape=partialRectangle;collapsible=0;dropTarget=0;pointerEvents=0;fillColor=none;points=[[0,0.5],[1,0.5]];portConstraint=eastwest;top=0;left=0;right=0;bottom=0;" parent="C-vyLk0tnHw3VtMMgP7b-13" vertex="1">
          <mxGeometry y="60" width="250" height="30" as="geometry" />
        </mxCell>
        <mxCell id="C-vyLk0tnHw3VtMMgP7b-18" value="FK1" style="shape=partialRectangle;overflow=hidden;connectable=0;fillColor=none;top=0;left=0;bottom=0;right=0;" parent="C-vyLk0tnHw3VtMMgP7b-17" vertex="1">
          <mxGeometry width="30" height="30" as="geometry" />
        </mxCell>
        <mxCell id="C-vyLk0tnHw3VtMMgP7b-19" value="order_id int NOT NULL" style="shape=partialRectangle;overflow=hidden;connectable=0;fillColor=none;top=0;left=0;bottom=0;right=0;align=left;spacingLeft=6;" parent="C-vyLk0tnHw3VtMMgP7b-17" vertex="1">
          <mxGeometry x="30" width="220" height="30" as="geometry" />
        </mxCell>
        <mxCell id="C-vyLk0tnHw3VtMMgP7b-20" value="" style="shape=partialRectangle;collapsible=0;dropTarget=0;pointerEvents=0;fillColor=none;points=[[0,0.5],[1,0.5]];portConstraint=eastwest;top=0;left=0;right=0;bottom=0;" parent="C-vyLk0tnHw3VtMMgP7b-13" vertex="1">
          <mxGeometry y="90" width="250" height="30" as="geometry" />
        </mxCell>
        <mxCell id="C-vyLk0tnHw3VtMMgP7b-21" value="" style="shape=partialRectangle;overflow=hidden;connectable=0;fillColor=none;top=0;left=0;bottom=0;right=0;" parent="C-vyLk0tnHw3VtMMgP7b-20" vertex="1">
          <mxGeometry width="30" height="30" as="geometry" />
        </mxCell>
        <mxCell id="C-vyLk0tnHw3VtMMgP7b-22" value="shipment_date date NOT NULL" style="shape=partialRectangle;overflow=hidden;connectable=0;fillColor=none;top=0;left=0;bottom=0;right=0;align=left;spacingLeft=6;" parent="C-vyLk0tnHw3VtMMgP7b-20" vertex="1">
          <mxGeometry x="30" width="220" height="30" as="geometry" />
        </mxCell>
        <mxCell id="C-vyLk0tnHw3VtMMgP7b-23" value="Customers" style="shape=table;startSize=30;container=1;collapsible=1;childLayout=tableLayout;fixedRows=1;rowLines=0;fontStyle=1;align=center;resizeLast=1;" parent="1" vertex="1">
          <mxGeometry x="120" y="120" width="250" height="100" as="geometry" />
        </mxCell>
        <mxCell id="C-vyLk0tnHw3VtMMgP7b-24" value="" style="shape=partialRectangle;collapsible=0;dropTarget=0;pointerEvents=0;fillColor=none;points=[[0,0.5],[1,0.5]];portConstraint=eastwest;top=0;left=0;right=0;bottom=1;" parent="C-vyLk0tnHw3VtMMgP7b-23" vertex="1">
          <mxGeometry y="30" width="250" height="30" as="geometry" />
        </mxCell>
        <mxCell id="C-vyLk0tnHw3VtMMgP7b-25" value="PK" style="shape=partialRectangle;overflow=hidden;connectable=0;fillColor=none;top=0;left=0;bottom=0;right=0;fontStyle=1;" parent="C-vyLk0tnHw3VtMMgP7b-24" vertex="1">
          <mxGeometry width="30" height="30" as="geometry" />
        </mxCell>
        <mxCell id="C-vyLk0tnHw3VtMMgP7b-26" value="customer_id int NOT NULL " style="shape=partialRectangle;overflow=hidden;connectable=0;fillColor=none;top=0;left=0;bottom=0;right=0;align=left;spacingLeft=6;fontStyle=5;" parent="C-vyLk0tnHw3VtMMgP7b-24" vertex="1">
          <mxGeometry x="30" width="220" height="30" as="geometry" />
        </mxCell>
        <mxCell id="C-vyLk0tnHw3VtMMgP7b-27" value="" style="shape=partialRectangle;collapsible=0;dropTarget=0;pointerEvents=0;fillColor=none;points=[[0,0.5],[1,0.5]];portConstraint=eastwest;top=0;left=0;right=0;bottom=0;" parent="C-vyLk0tnHw3VtMMgP7b-23" vertex="1">
          <mxGeometry y="60" width="250" height="30" as="geometry" />
        </mxCell>
        <mxCell id="C-vyLk0tnHw3VtMMgP7b-28" value="" style="shape=partialRectangle;overflow=hidden;connectable=0;fillColor=none;top=0;left=0;bottom=0;right=0;" parent="C-vyLk0tnHw3VtMMgP7b-27" vertex="1">
          <mxGeometry width="30" height="30" as="geometry" />
        </mxCell>
        <mxCell id="C-vyLk0tnHw3VtMMgP7b-29" value="customer_name char(50) NOT NULL" style="shape=partialRectangle;overflow=hidden;connectable=0;fillColor=none;top=0;left=0;bottom=0;right=0;align=left;spacingLeft=6;" parent="C-vyLk0tnHw3VtMMgP7b-27" vertex="1">
          <mxGeometry x="30" width="220" height="30" as="geometry" />
        </mxCell>
      </root>
    </mxGraphModel>
  </diagram>
</mxfile>
